<svg xmlns="http://www.w3.org/2000/svg" xmlns:xlink="http://www.w3.org/1999/xlink" width="28" height="28" viewBox="0 0 28 28"><defs><style>.a{fill:#fff;}.a,.b,.e{stroke:#707070;}.c{clip-path:url(#a);}.d{clip-path:url(#b);}.e{fill:#012169;}.f,.i{stroke:#fff;}.f,.j{stroke-width:6px;}.g{clip-path:url(#c);}.h,.j{stroke:#c8102e;}.h{stroke-width:4px;}.i{stroke-width:10px;}</style><clipPath id="a"><circle class="a" cx="14" cy="14" r="14" transform="translate(-368 637)"/></clipPath><clipPath id="b"><path class="b" d="M0,0V30H60V0Z"/></clipPath><clipPath id="c"><path class="b" d="M30,15H60V30Zm0,0V30H0Zm0,0H0V0Zm0,0V0H60Z"/></clipPath></defs><g class="c" transform="translate(368 -637)"><g class="d" transform="translate(-384 636)"><path class="e" d="M0,0V30H60V0Z"/><path class="f" d="M0,0,60,30M60,0,0,30"/><g class="g"><path class="h" d="M0,0,60,30M60,0,0,30"/></g><path class="i" d="M30,0V30M0,15H60"/><path class="j" d="M30,0V30M0,15H60"/></g></g></svg>