<svg xmlns="http://www.w3.org/2000/svg" width="20.664" height="21.8" viewBox="0 0 20.664 21.8"><defs><style>.a{fill:#fff;}</style></defs><path class="a" d="M10.816,17.542l2.052-4.169V22.46H5.578a.941.941,0,0,1-.941-.941V12.664h5.744L8.521,16.42a.259.259,0,0,0,.316.358L9.959,16.4l.382,1.122h0a.258.258,0,0,0,.475.024ZM18.6,16.42a.259.259,0,0,1-.316.358L17.166,16.4l-.382,1.122h0a.258.258,0,0,1-.476.031l-2.05-4.173V22.46h7.29a.941.941,0,0,0,.941-.941V12.664H16.743ZM12.86,7.76H4.171a.941.941,0,0,0-.941.928v1.688a.941.941,0,0,0,.941.941h8.7Zm10.084,0H14.256v3.566h8.7a.941.941,0,0,0,.941-.941v-1.7a.941.941,0,0,0-.941-.935ZM17.433,6.479h-3.87v0H9.692a2.91,2.91,0,1,1,2.156-4.86l1.715,1.9,1.712-1.9a2.91,2.91,0,1,1,2.161,4.86ZM11.762,4.49,10.375,2.944a.911.911,0,0,0-.683-.3.921.921,0,1,0,0,1.842Zm3.6,0h2.069a.921.921,0,1,0,0-1.842.912.912,0,0,0-.683.3Z" transform="translate(-3.23 -0.659)"/></svg>