<svg xmlns="http://www.w3.org/2000/svg" width="14.621" height="20.035" viewBox="0 0 14.621 20.035"><path d="M23.255,6.725a1,1,0,0,1-1,1A1.578,1.578,0,0,0,20.679,9.3a1,1,0,1,1-2,0,3.582,3.582,0,0,1,3.577-3.577,1,1,0,0,1,1,1Zm6.3,2.575a7.323,7.323,0,0,1-3.09,5.969.51.51,0,0,0-.223.417v2.671h0a2,2,0,0,1-1.705,1.977v.787a.914.914,0,0,1-.914.91H20.884a.914.914,0,0,1-.924-.914v-.787a2,2,0,0,1-1.705-1.977V15.684a.516.516,0,0,0-.227-.417A7.308,7.308,0,1,1,29.559,9.3Zm-2,0a5.3,5.3,0,0,0-5.3-5.3q-.19,0-.382.012a5.338,5.338,0,0,0-4.894,4.735,5.267,5.267,0,0,0,2.214,4.885,2.521,2.521,0,0,1,1.073,2.051v.749h3.978v-.75a2.514,2.514,0,0,1,1.07-2.049A5.316,5.316,0,0,0,27.558,9.3Z" transform="translate(-14.938 -1.995)"/></svg>