<svg xmlns="http://www.w3.org/2000/svg" xmlns:xlink="http://www.w3.org/1999/xlink" width="28" height="28" viewBox="0 0 28 28"><defs><style>.a,.d{fill:#fff;}.a{stroke:#707070;}.b{clip-path:url(#a);}.c{fill:#f93;}.e{fill:#128807;}.f{fill:#008;}</style><clipPath id="a"><circle class="a" cx="14" cy="14" r="14" transform="translate(-421 673)"/></clipPath></defs><g class="b" transform="translate(421 -673)"><g transform="translate(-429 672)"><rect class="c" width="45" height="30"/><rect class="d" width="45" height="10" transform="translate(0 10)"/><rect class="e" width="45" height="10" transform="translate(0 20)"/><g transform="translate(15.621 6.56)"><circle class="f" cx="4.031" cy="4.031" r="4.031" transform="translate(3.024 4.526)"/><circle class="d" cx="3.527" cy="3.527" r="3.527" transform="translate(3.528 5.03)"/><circle class="f" cx="0.705" cy="0.705" r="0.705" transform="translate(6.35 7.852)"/><g transform="translate(0.646 5.735)"><g transform="translate(3.336 2.501)"><g transform="translate(2.044 0.545)"><g transform="translate(0.909 0.04)"><circle class="f" cx="0.176" cy="0.176" r="0.176" transform="translate(3.466 0) rotate(7.5)"/><path class="f" d="M-.479,5.124l.121-2.116L-.479,2-.6,3.008Z" transform="translate(0.6 -1.859)"/></g><g transform="matrix(0.966, 0.259, -0.259, 0.966, 0.845, 0)"><circle class="f" cx="0.176" cy="0.176" r="0.176" transform="translate(3.466 0) rotate(7.5)"/><path class="f" d="M.121,3.124.242,1.008.121,0,0,1.008Z" transform="translate(0 0.141)"/></g></g><g transform="translate(2.071 0) rotate(30)"><g transform="translate(0.909 0.04)"><circle class="f" cx="0.176" cy="0.176" r="0.176" transform="translate(3.466 0) rotate(7.5)"/><path class="f" d="M.121,3.124.242,1.008.121,0,0,1.008Z" transform="translate(0 0.141)"/></g><g transform="matrix(0.966, 0.259, -0.259, 0.966, 0.845, 0)"><circle class="f" cx="0.176" cy="0.176" r="0.176" transform="translate(3.466 0) rotate(7.5)"/><path class="f" d="M.121,3.124.242,1.008.121,0,0,1.008Z" transform="translate(0 0.141)"/></g></g></g><g transform="translate(5.152 0) rotate(60)"><g transform="translate(2.044 0.545)"><g transform="translate(0.909 0.04)"><circle class="f" cx="0.176" cy="0.176" r="0.176" transform="translate(3.466 0) rotate(7.5)"/><path class="f" d="M.121,3.124.242,1.008.121,0,0,1.008Z" transform="translate(0 0.141)"/></g><g transform="matrix(0.966, 0.259, -0.259, 0.966, 0.845, 0)"><circle class="f" cx="0.176" cy="0.176" r="0.176" transform="translate(3.466 0) rotate(7.5)"/><path class="f" d="M.121,3.124.242,1.008.121,0,0,1.008Z" transform="translate(0 0.141)"/></g></g><g transform="translate(2.071 0) rotate(30)"><g transform="translate(0.909 0.04)"><circle class="f" cx="0.176" cy="0.176" r="0.176" transform="translate(3.466) rotate(7.5)"/><path class="f" d="M.121,3.124.242,1.008.121,0,0,1.008Z" transform="translate(0 0.141)"/></g><g transform="matrix(0.966, 0.259, -0.259, 0.966, 0.845, 0)"><circle class="f" cx="0.176" cy="0.176" r="0.176" transform="translate(3.466 0) rotate(7.5)"/><path class="f" d="M.121,3.124.242,1.008.121,0,0,1.008Z" transform="translate(0 0.141)"/></g></g></g></g><g transform="translate(12.705 4.418) rotate(120)"><g transform="translate(3.336 2.501)"><g transform="translate(2.044 0.545)"><g transform="translate(0.909 0.04)"><circle class="f" cx="0.176" cy="0.176" r="0.176" transform="translate(3.466 0) rotate(7.5)"/><path class="f" d="M.121,3.124.242,1.008.121,0,0,1.008Z" transform="translate(0 0.141)"/></g><g transform="matrix(0.966, 0.259, -0.259, 0.966, 0.845, 0)"><circle class="f" cx="0.176" cy="0.176" r="0.176" transform="translate(3.466 0) rotate(7.5)"/><path class="f" d="M.121,3.124.242,1.008.121,0,0,1.008Z" transform="translate(0 0.141)"/></g></g><g transform="translate(2.071 0) rotate(30)"><g transform="translate(0.909 0.04)"><circle class="f" cx="0.176" cy="0.176" r="0.176" transform="translate(3.466 0) rotate(7.5)"/><path class="f" d="M.121,3.124.242,1.008.121,0,0,1.008Z" transform="translate(0 0.141)"/></g><g transform="matrix(0.966, 0.259, -0.259, 0.966, 0.845, 0)"><circle class="f" cx="0.176" cy="0.176" r="0.176" transform="translate(3.466 0) rotate(7.5)"/><path class="f" d="M.121,3.124.242,1.008.121,0,0,1.008Z" transform="translate(0 0.141)"/></g></g></g><g transform="translate(5.152 0) rotate(60)"><g transform="translate(2.044 0.545)"><g transform="translate(0.909 0.04)"><circle class="f" cx="0.176" cy="0.176" r="0.176" transform="translate(3.466 0) rotate(7.5)"/><path class="f" d="M.121,3.124.242,1.008.121,0,0,1.008Z" transform="translate(0 0.141)"/></g><g transform="matrix(0.966, 0.259, -0.259, 0.966, 0.845, 0)"><circle class="f" cx="0.176" cy="0.176" r="0.176" transform="translate(3.466 0) rotate(7.5)"/><path class="f" d="M.121,3.124.242,1.008.121,0,0,1.008Z" transform="translate(0 0.141)"/></g></g><g transform="translate(2.071 0) rotate(30)"><g transform="translate(0.909 0.04)"><circle class="f" cx="0.176" cy="0.176" r="0.176" transform="translate(3.466 0) rotate(7.5)"/><path class="f" d="M.121,3.124.242,1.008.121,0,0,1.008Z" transform="translate(0 0.141)"/></g><g transform="matrix(0.966, 0.259, -0.259, 0.966, 0.845, 0)"><circle class="f" cx="0.176" cy="0.176" r="0.176" transform="translate(3.466 0) rotate(7.5)"/><path class="f" d="M.121,3.124.242,1.008.121,0,0,1.008Z" transform="translate(0 0.141)"/></g></g></g></g><g transform="translate(7.815 15.52) rotate(-120)"><g transform="translate(3.336 2.501)"><g transform="translate(2.044 0.545)"><g transform="translate(0.909 0.04)"><circle class="f" cx="0.176" cy="0.176" r="0.176" transform="translate(3.466 0) rotate(7.5)"/><path class="f" d="M.121,3.124.242,1.008.121,0,0,1.008Z" transform="translate(0 0.141)"/></g><g transform="matrix(0.966, 0.259, -0.259, 0.966, 0.845, 0)"><circle class="f" cx="0.176" cy="0.176" r="0.176" transform="translate(3.466 0) rotate(7.5)"/><path class="f" d="M.121,3.124.242,1.008.121,0,0,1.008Z" transform="translate(0 0.141)"/></g></g><g transform="translate(2.071 0) rotate(30)"><g transform="translate(0.909 0.04)"><circle class="f" cx="0.176" cy="0.176" r="0.176" transform="translate(3.466) rotate(7.5)"/><path class="f" d="M.121,3.124.242,1.008.121,0,0,1.008Z" transform="translate(0 0.141)"/></g><g transform="matrix(0.966, 0.259, -0.259, 0.966, 0.845, 0)"><circle class="f" cx="0.176" cy="0.176" r="0.176" transform="translate(3.466 0) rotate(7.5)"/><path class="f" d="M.121,3.124.242,1.008.121,0,0,1.008Z" transform="translate(0 0.141)"/></g></g></g><g transform="translate(5.152 0) rotate(60)"><g transform="translate(2.044 0.545)"><g transform="translate(0.909 0.04)"><circle class="f" cx="0.176" cy="0.176" r="0.176" transform="translate(3.466 0) rotate(7.5)"/><path class="f" d="M.121,3.124.242,1.008.121,0,0,1.008Z" transform="translate(0 0.141)"/></g><g transform="matrix(0.966, 0.259, -0.259, 0.966, 0.845, 0)"><circle class="f" cx="0.176" cy="0.176" r="0.176" transform="translate(3.466 0) rotate(7.5)"/><path class="f" d="M.121,3.124.242,1.008.121,0,0,1.008Z" transform="translate(0 0.141)"/></g></g><g transform="translate(2.071 0) rotate(30)"><g transform="translate(0.909 0.04)"><circle class="f" cx="0.176" cy="0.176" r="0.176" transform="translate(3.466 0) rotate(7.5)"/><path class="f" d="M.121,3.124.242,1.008.121,0,0,1.008Z" transform="translate(0 0.141)"/></g><g transform="matrix(0.966, 0.259, -0.259, 0.966, 0.845, 0)"><circle class="f" cx="0.176" cy="0.176" r="0.176" transform="translate(3.466 0) rotate(7.5)"/><path class="f" d="M.121,3.124.242,1.008.121,0,0,1.008Z" transform="translate(0 0.141)"/></g></g></g></g></g></g></g></svg>